<svg width="32" height="32" viewBox="0 0 32 32" fill="none" xmlns="http://www.w3.org/2000/svg">
  <rect width="32" height="32" rx="8" fill="#3B82F6"/>
  <path d="M8 12C8 9.79086 9.79086 8 12 8H20C22.2091 8 24 9.79086 24 12V20C24 22.2091 22.2091 24 20 24H12C9.79086 24 8 22.2091 8 20V12Z" fill="white"/>
  <path d="M12 10C10.8954 10 10 10.8954 10 12V20C10 21.1046 10.8954 22 12 22H20C21.1046 22 22 21.1046 22 20V12C22 10.8954 21.1046 10 20 10H12Z" fill="#3B82F6"/>
  <circle cx="16" cy="16" r="3" fill="white"/>
  <path d="M14 16H18M16 14V18" stroke="#3B82F6" stroke-width="1.5" stroke-linecap="round"/>
</svg>
